# xmcd
#
# Track frame offsets:
#	150
#	19875
#	38402
#	52110
#	73035
#	87982
#	104287
#	123385
#	140588
#	159140
#	180471
#	194662
#	208527
#	225578
#	241811
#
# Disc length: 3459 seconds
#
# Revision: 0
# Processed by: cddbd v1.5.2PL0 Copyright (c) Steve Scherf et al.
# Submitted via: dBpowerAMP V4.0
#
DISCID=c70d810f
DTITLE=Evelyn - Evelyn
DYEAR=2006
DGENRE=Soul
TTITLE0=Demorou
TTITLE1=Já é
TTITLE2=Lilás
TTITLE3=Bem Melhor
TTITLE4=Vapor Barato
TTITLE5=Hora da União
TTITLE6=Nunca Mais
TTITLE7=Desaparecer
TTITLE8=Como Nossos Pais
TTITLE9=Sonhos Tão Doces
TTITLE10=Mas Que Nada
TTITLE11=Aquele Abraço
TTITLE12=Assim na Boa
TTITLE13=Tô Indo Embora
TTITLE14=Bem Melhor - Maxpop Remix
EXTD=
EXTT0=
EXTT1=
EXTT2=
EXTT3=
EXTT4=
EXTT5=
EXTT6=
EXTT7=
EXTT8=
EXTT9=
EXTT10=
EXTT11=
EXTT12=
EXTT13=
EXTT14=
PLAYORDER=
